<svg xmlns="http://www.w3.org/2000/svg" viewbox="0 0 1200 1200" version="1.1" height="1200"><path d="M 1100,500 900,700 H 300 L 100,500 V 0 H 300 V 200 H 500 V 0 H 700 V 200 H 900 V 0 h 200 V 500 z M 250,800 h 700 q 21,0 35.5,14.5 14.5,14.5 14.5,35.5 0,21 -14.5,35.5 Q 971,900 950,900 h -12 l 137,100 H 125 L 262,900 H 250 Q 229,900 214.5,885.5 200,871 200,850 200,829 214.5,814.5 229,800 250,800 z M 50,1100 h 1100 q 21,0 35.5,14.5 14.5,14.5 14.5,35.5 v 50 H 0 v -50 Q 0,1129 14.5,1114.5 29,1100 50,1100 z" fill="#2c3e50" /></svg>
